<svg xmlns="http://www.w3.org/2000/svg" version="1.0" width="533.3333333" height="533.3333333" viewBox="0 0 400 400">
<path d="M199 8.6c-1.4.3-6.1 1.6-10.5 2.9-5.1 1.5-12.6 2.8-20.7 3.4l-12.8 1-15.7 7.2c-29.5 13.4-39.5 20.6-62.9 45.8-13.5 14.5-15.6 18-23.6 38.5-7.4 18.9-7.1 17.1-7.6 43.1-.5 31.5.4 40.4 6.1 57.5 7.1 21.4 10.6 28 19 36.9 12.4 12.9 12.7 13.7 7 24.5-3 5.9-3.7 8.4-4.1 14.6-.6 10.2 1 15.5 6.2 20.6 4.5 4.5 9.3 6.4 16.6 6.4 5.5 0 10-1.2 29-7.9 8.3-2.9 16.2-5.1 18.5-5.1 2.2 0 7.6 1.2 12 2.6 10.1 3.2 22.7 4.3 48.5 4.3 26.2 0 38.5-1.1 48.5-4.2 4.4-1.4 10.5-3.3 13.5-4.1 5.2-1.4 24.5-11.8 35.6-19.2 2.8-1.9 10.4-8.7 16.9-15.1 19.5-19.6 33.7-43 36.4-60.4.6-3.6 2.3-9.8 3.8-13.9 2.6-7.1 2.7-8.5 2.8-25 0-16.4-.2-18-2.7-25-1.4-4.1-3.1-10.9-3.7-15-2-14.5-7.4-28.6-14.4-37.8-2.4-3.1-6.5-9.1-9.1-13.2-3.1-4.7-10-12.5-18.8-21.2-14.4-14.3-20.3-18.4-32.8-23.2-3.6-1.3-10.8-4.4-16-6.9-9.7-4.7-19.2-6.7-31-6.7-2.6 0-8.3-1.1-12.7-2.4-8.4-2.5-17-3.7-21.3-3zm28.3 25.1c9.8.6 9.8.6 10.4 3.5.5 2.6.9 2.8 5.3 2.8 8.9 0 14 1.1 14 3 0 2.3 2 3 8.6 3 5.3 0 5.4.1 5.4 2.9 0 2.5.5 3.1 3.1 3.6 1.9.4 3.4 1.6 3.9 3.1 1.1 2.7 4.6 4.4 9 4.4 2.4 0 2.9.5 3.2 2.7.2 2.2.9 2.9 3.1 3.1 1.5.2 2.7.9 2.5 1.5-.6 3.1 1.4 5.7 4.3 5.7 2.4 0 2.9.4 2.9 2.3 0 2.9 1.8 4.7 4.7 4.7 1.5 0 2.3.6 2.3 1.8 0 2.1 2.8 6.4 3.9 5.8.3-.3.7.3.8 1.2.2 3.7 3.2 9.8 5.1 10.6 1.1.6 2.7 2.5 3.6 4.3.8 1.8 2.9 5.1 4.6 7.4 2.9 4 3 4.7 3 14.1 0 9.6.4 11 2.8 8.6.6-.6 1.5-.8 1.9-.4 1.9 1.9 1.4 52.7-.5 52.5-3.9-.6-4.2 0-4.2 8.5 0 9.2-.5 11.6-2.5 11.6-2.8 0-4.5 3.1-4.5 8.1 0 4.7-.2 5.1-3 6.1-3.2 1.1-6.4 6.6-5.4 9.1.2.7-.7 1.9-2.1 2.7-1.5.8-2.5 2.2-2.5 3.5 0 1.6-1 2.7-3 3.5-1.7.7-3.8 2.6-4.6 4.1-1 1.9-2.2 2.9-3.8 2.9-1.8 0-2.5.8-3.2 3.2-.6 2.1-1.7 3.4-2.9 3.6-1.1.1-2.7 1.6-3.6 3.1-1.4 2.4-2.6 3-6.8 3.6-4.3.6-5.2 1.1-5.7 3.2-.5 2-1.1 2.3-3 1.9-1.2-.3-2.6-.1-2.9.4-.4.6-1 .8-1.5.5-.4-.3-2.1 1-3.8 2.9-1.6 1.9-4.3 3.7-6 4.1-2.4.5-3.2 1.2-3.4 3.3-.2 2.1-.8 2.6-2.5 2.4-1.2-.2-2.4.2-2.8.8-.4.6-6 1-14.8 1-16 0-18.4.4-19.2 3.1-.6 1.7-1.8 1.9-13.5 1.9-12.6 0-12.9 0-13.2-2.2-.3-2-1.1-2.4-6.8-3.1-9.6-1.2-19.1-1.5-22.5-.6-1.6.4-4.6.5-6.5.1-2.8-.6-3.6-1.3-3.8-3.4-.3-2.4-.8-2.7-6-3.2-3.1-.3-8.8-.3-12.6.1-6.8.8-7 .9-7.8 4-.9 3.3-.9 3.3-7.3 3.3-6.4 0-6.5 0-6.5 2.7 0 2.8-.1 2.8-7.1 2.9l-7 .2.3-2.7c.2-2 .8-2.5 2.4-2.3 2.5.3 4.1-1.3 4.6-4.7.2-1.8 1.2-2.7 3.3-3.3 4.4-1.1 5.5-4.7 4.5-14.7-1.1-10.7-1.6-12.1-4.5-12.1-1.3 0-3.2-1.1-4.2-2.3-1-1.3-2.8-2.9-4-3.5-1.2-.7-2.3-2.4-2.5-3.9-.2-1.6-.9-2.9-1.5-2.9-.7-.1-1.7-.2-2.2-.3-.5 0-1.1-1.3-1.3-2.9-.2-2.1-1-2.9-3.5-3.7-2.2-.6-3.3-1.5-3.3-2.8 0-2.5-1.9-5.9-4.1-7.5-1-.7-2.3-3.2-3-5.5-.6-2.3-2.2-5.7-3.6-7.5-2.3-3-2.5-4.4-3-16.7l-.6-13.5H65v-26.5l3-1.3c2.9-1.3 3-1.6 3-8 0-12.1 1-17.3 3.6-18.4 1.8-.9 2.4-2.1 2.9-6.9.6-5 1.2-6.3 3.8-8.3 2.4-1.9 3-3.2 3.1-6.2.2-3.6.4-3.9 3.3-4.2 2.8-.3 3.2-.7 3.5-3.5.2-2.6.8-3.3 3-3.5 2.1-.3 2.7-.9 3-3 .2-2.2.9-2.8 3.6-3 3-.3 3.2-.1 3.2 2.7 0 3.1.1 3.1 5.1 3.1 5.5 0 7.9 1.5 7.9 4.9 0 2 .6 2.1 9 2.1h8.9l.9 3.2.8 3.3-12.5.3c-7.1.2-14.9-.2-18-.8-3.5-.8-5.6-.9-6.3-.2-.6.6-1.1 3.6-1.2 6.7-.1 5 .2 5.9 2.2 7.4 1.3.9 4 3 6 4.7 2.1 1.7 5.3 4 7.2 5.2 2 1.1 5.5 4.1 7.8 6.6 2.3 2.4 5 4.7 5.9 4.9 1 .3 3 .8 4.6 1.1 1.7.4 2.7 1.3 2.7 2.5 0 1.5 1.1 2 6 2.5 3.3.4 9.8.4 14.5 0 7.3-.6 8.5-.5 8.5.9 0 1.1.9 1.5 3.5 1.4 2.7-.2 3.5-.6 3.5-2.1s.5-1.7 3-1.3c2.9.6 3 .5 3-2.8V133h14v3.5c0 3.2.2 3.5 3 3.5 2.7 0 3 .3 3 3v3h14v-2.9c0-1.7.5-3.3 1-3.6.6-.3 1-1.9 1-3.6V133h19.1l-.3 2.7c-.4 3.6 1.6 4.1 17 4.2l12.2.1v-2.5c0-2 .6-2.5 3.6-3.1 2.5-.4 3.8-1.4 4.4-3 .5-1.3 1.4-2.4 2-2.4.6 0 2.2-1.1 3.5-2.4 1.3-1.3 3.7-3.3 5.4-4.5 1.7-1.2 3.1-2.8 3.1-3.6 0-.7 1.7-2.2 3.8-3.2l3.7-1.8.1-6.8.1-6.7h-3.4c-3 0-3.3.3-3.3 3v3h-27v-6h27V86h-26.8c-25.4 0-27 .1-28.6 1.9-1 1.1-3.2 2.3-4.9 2.7-1.7.3-4.8 2.3-6.8 4.3-3.2 3-6.8 5.9-13.3 10.4-.6.4-2.3 1.1-3.8 1.7-2.1.7-2.8 1.6-2.8 3.5v2.5h-12.5c-9.3 0-13.4-.4-15.5-1.5-1.7-.9-3-2-3-2.5 0-.4-2.9-3.9-6.5-7.6-3.6-3.7-6.5-7.3-6.6-7.8-.1-1.6-14.2-10.6-16.5-10.6-1.1 0-2.9-.7-4-1.5-1.3-1-4.4-1.4-9.8-1.5h-7.9l.6-3.5.6-3.5h-5.5c-5.3 0-5.4 0-5.4-3 0-2.6.4-3 2.6-3 1.5 0 4.1-1.3 6.2-3.1 1.9-1.7 4.8-3.6 6.4-4.1 1.7-.6 3.1-2 3.4-3.4.5-1.9 1.3-2.4 3.8-2.4 3.5 0 5.7-1.5 5-3.5-.6-1.5 3.5-3.1 9.8-4 3.2-.4 5.1-1.2 5.8-2.5 1.4-2.6 7-4 15.8-4h7.2v-3c0-2.9 0-2.9 6.8-3.3 13.1-.6 39.8-.7 49.5 0zM151 116.5c0 3.3-.2 3.5-3.5 3.5s-3.5-.2-3.5-3.5.2-3.5 3.5-3.5 3.5.2 3.5 3.5zm118.3-2.9c1.1 1.2-1.5 6.4-3.3 6.4-1.1 0-2 1-2.3 3l-.6 3H231v-6h20v-7h8.8c4.9 0 9.1.3 9.5.6z" fill="#e2af22"/>
<path d="M152.5 167.5c-.3.8-.7 2.2-1 3.1-.3 1-1.2 1.4-2.5 1.1-2.8-.7-4.8 1.3-5.8 5.8-.7 3.5-1.2 4-3.5 3.8-2.2-.1-2.7.2-2.7 2.3 0 1.3-.3 2.4-.7 2.4-.5 0-.8 4.5-.8 10.1v10l3.5-.6c4.5-.9 5-1.2 5-3.6 0-1.6.7-1.9 4.6-1.9 5.4 0 8.4 1.4 8.4 3.8 0 1.1 1.4 2.5 3.5 3.5 2.2 1 3.5 2.4 3.5 3.6 0 1.6 1 2 6.5 2.6 6.4.6 6.5.7 6.5 3.6 0 2.6-.4 2.9-3 2.9-2.7 0-3 .3-3 3v3h-8c-9 0-12.8 1.3-13.7 4.7-.3 1.4-1.6 2.9-2.9 3.3-2.9 1.2-3.2 4.6-.4 5.5 1.1.3 5 .3 8.8 0l6.9-.7 7.4 6.7c4.1 3.7 8.8 7.3 10.5 8 1.9.9 3.4 2.4 3.8 4 .6 2.2 1.2 2.5 5.1 2.5 3.9 0 4.7.3 5.5 2.5.8 2.1 1.6 2.5 5.4 2.5 3.6 0 4.7-.5 6-2.5 1.4-2.1 2.4-2.5 6.6-2.5 4.9 0 5-.1 5-3 0-2.5.4-3 2.5-3 1.7 0 3.1-.9 4.3-2.9 1-1.6 5.7-6.4 10.5-10.8 13.4-12 16.9-14.9 20.3-16.6 3.4-1.8 4.4-3.4 4.4-7.5 0-4.6-1.3-5.6-6.5-4.9-5.6.8-6.4 1.2-7.5 4.2-1 2.5-2.6 2.9-19.7 3.9l-8.3.5v-3.4c0-3.4.1-3.5 4.3-3.6 8-.2 10.2-1.1 10.2-4.1-.1-2.2.5-2.9 2.7-3.3 2.7-.6 2.8-.9 2.8-6.6V193h3.1c1.9 0 3.7-.7 4.4-1.7 1.1-1.5 1.6-1.6 3.9-.4 1.4.8 3.2 2.9 4.1 4.7.9 1.9 2.4 3.8 3.4 4.4 1.1.5 2.4 2.3 2.9 3.9.6 1.6 1.9 3.4 3.1 4 1.1.6 2.1 2.1 2.3 3.3.4 2.9 6.1 3.8 8.7 1.4 1-.9 2.1-1.3 2.4-.9.4.3.7-.3.7-1.3 0-1.1-.5-2.5-1.2-3.2-.7-.7-.8-1.2-.3-1.2.6 0 .5-.4-.2-.8-.6-.4-1.4-1.9-1.6-3.3-.7-3.5-2.7-6.9-5.4-9.1-1.2-1-2.5-2.7-2.8-3.8-.3-1-3.9-4.4-7.9-7.4-4.1-3-7.6-6.2-7.9-7-.3-.8-2.8-1.8-5.9-2.3-4.8-.7-5.3-1.1-5.6-3.5l-.3-2.7-3.5 2.2c-3.5 2.3-3.8 3.3-2.8 8.5.5 2.4 1.2 3.2 3.3 3.4 2 .2 2.7.9 2.9 3 .3 2.3-.1 2.7-2.5 3-2.2.2-2.9.9-3.1 3-.2 1.8-1.4 3.4-3.6 4.7-1.8 1.1-3.8 3.2-4.4 4.6-.9 1.9-1.9 2.5-4.4 2.5-1.7 0-5.2 1-7.6 2.2-2.5 1.1-6.7 2.3-9.3 2.6-4.3.4-4.9.7-4.9 2.8 0 4.7-8.5 5.7-10.5 1.2-1-2.1-4.5-4.7-9.5-6.9-6.4-2.8-11-5.2-11-5.9 0-.3-2-2.8-4.5-5.3L157 187v-10.5c0-9.9-.1-10.5-2-10.5-1.1 0-2.3.7-2.5 1.5zm39.3 59.7c.7.7 1.2 1.9 1.2 2.8 0 .8.9 2.1 2 2.8 1.3.8 2 2.3 2 4.2v3h-13v-14h3.3c1.8 0 3.8.5 4.5 1.2zm25 4c.5 7.3-.8 8.8-7.4 8.8h-5.5l.3-3.7c.2-2.7.9-4.1 2.6-4.9 1.3-.6 3-2.1 3.9-3.3.9-1.4 2.3-2.1 3.6-1.9 1.9.3 2.2 1.1 2.5 5z" fill="#e2af22"/>
</svg>